<?xml version="1.0" encoding="UTF-8" standalone="no"?>
<!DOCTYPE svg PUBLIC "-//W3C//DTD SVG 1.1//EN"
 "http://www.w3.org/Graphics/SVG/1.1/DTD/svg11.dtd">
<!-- Generated by graphviz version 2.38.0 (20140413.2041)
 -->
<!-- Title: models_diagram Pages: 1 -->
<svg width="484pt" height="416pt"
 viewBox="0.00 0.00 484.00 416.00" xmlns="http://www.w3.org/2000/svg" xmlns:xlink="http://www.w3.org/1999/xlink">
<g id="graph0" class="graph" transform="scale(1 1) rotate(0) translate(4 412)">
<title>models_diagram</title>
<polygon fill="none" stroke="none" points="-4,4 -4,-412 480,-412 480,4 -4,4"/>
<!-- _diagram_info -->
<g id="node1" class="node"><title>_diagram_info</title>
<text text-anchor="start" x="8" y="-379.1" font-family="Times,serif" font-size="13.00">Models diagram</text>
<text text-anchor="start" x="8" y="-365.1" font-family="Times,serif" font-size="13.00">Date: Jul 11 2016 &#45; 20:25</text>
<text text-anchor="start" x="8" y="-351.1" font-family="Times,serif" font-size="13.00">Migration version: 20160708022811</text>
<text text-anchor="start" x="8" y="-337.1" font-family="Times,serif" font-size="13.00">Generated by RailRoady 1.5.1</text>
<text text-anchor="start" x="8" y="-323.1" font-family="Times,serif" font-size="13.00">http://railroady.prestonlee.com</text>
</g>
<!-- Operation -->
<g id="node2" class="node"><title>Operation</title>
<path fill="none" stroke="black" d="M244,-173.5C244,-173.5 464,-173.5 464,-173.5 470,-173.5 476,-179.5 476,-185.5 476,-185.5 476,-252.5 476,-252.5 476,-258.5 470,-264.5 464,-264.5 464,-264.5 244,-264.5 244,-264.5 238,-264.5 232,-258.5 232,-252.5 232,-252.5 232,-185.5 232,-185.5 232,-179.5 238,-173.5 244,-173.5"/>
<text text-anchor="middle" x="354" y="-249.3" font-family="Times,serif" font-size="14.00">Operation</text>
<polyline fill="none" stroke="black" points="232,-241.5 476,-241.5 "/>
<text text-anchor="start" x="240" y="-226.3" font-family="Times,serif" font-size="14.00">id :integer</text>
<text text-anchor="start" x="240" y="-211.3" font-family="Times,serif" font-size="14.00">worker_id :integer</text>
<text text-anchor="start" x="240" y="-196.3" font-family="Times,serif" font-size="14.00">created_at :timestamp without time zone</text>
<text text-anchor="start" x="240" y="-181.3" font-family="Times,serif" font-size="14.00">updated_at :timestamp without time zone</text>
</g>
<!-- Inventory -->
<g id="node4" class="node"><title>Inventory</title>
<path fill="none" stroke="black" d="M244,-0.5C244,-0.5 464,-0.5 464,-0.5 470,-0.5 476,-6.5 476,-12.5 476,-12.5 476,-124.5 476,-124.5 476,-130.5 470,-136.5 464,-136.5 464,-136.5 244,-136.5 244,-136.5 238,-136.5 232,-130.5 232,-124.5 232,-124.5 232,-12.5 232,-12.5 232,-6.5 238,-0.5 244,-0.5"/>
<text text-anchor="middle" x="354" y="-121.3" font-family="Times,serif" font-size="14.00">Inventory</text>
<polyline fill="none" stroke="black" points="232,-113.5 476,-113.5 "/>
<text text-anchor="start" x="240" y="-98.3" font-family="Times,serif" font-size="14.00">id :integer</text>
<text text-anchor="start" x="240" y="-83.3" font-family="Times,serif" font-size="14.00">serial :integer</text>
<text text-anchor="start" x="240" y="-68.3" font-family="Times,serif" font-size="14.00">description :character varying</text>
<text text-anchor="start" x="240" y="-53.3" font-family="Times,serif" font-size="14.00">size :integer</text>
<text text-anchor="start" x="240" y="-38.3" font-family="Times,serif" font-size="14.00">created_at :timestamp without time zone</text>
<text text-anchor="start" x="240" y="-23.3" font-family="Times,serif" font-size="14.00">updated_at :timestamp without time zone</text>
<text text-anchor="start" x="240" y="-8.3" font-family="Times,serif" font-size="14.00">operation_id :integer</text>
</g>
<!-- Operation&#45;&gt;Inventory -->
<g id="edge1" class="edge"><title>Operation&#45;&gt;Inventory</title>
<path fill="none" stroke="#826e9b" d="M354,-165.386C354,-158.675 354,-151.706 354,-144.726"/>
<ellipse fill="none" stroke="#826e9b" cx="354" cy="-169.445" rx="4" ry="4"/>
<ellipse fill="#826e9b" stroke="#826e9b" cx="354" cy="-140.541" rx="4" ry="4"/>
</g>
<!-- Worker -->
<g id="node3" class="node"><title>Worker</title>
<path fill="none" stroke="black" d="M244,-301.5C244,-301.5 464,-301.5 464,-301.5 470,-301.5 476,-307.5 476,-313.5 476,-313.5 476,-395.5 476,-395.5 476,-401.5 470,-407.5 464,-407.5 464,-407.5 244,-407.5 244,-407.5 238,-407.5 232,-401.5 232,-395.5 232,-395.5 232,-313.5 232,-313.5 232,-307.5 238,-301.5 244,-301.5"/>
<text text-anchor="middle" x="354" y="-392.3" font-family="Times,serif" font-size="14.00">Worker</text>
<polyline fill="none" stroke="black" points="232,-384.5 476,-384.5 "/>
<text text-anchor="start" x="240" y="-369.3" font-family="Times,serif" font-size="14.00">id :integer</text>
<text text-anchor="start" x="240" y="-354.3" font-family="Times,serif" font-size="14.00">name :character varying</text>
<text text-anchor="start" x="240" y="-339.3" font-family="Times,serif" font-size="14.00">mail :character varying</text>
<text text-anchor="start" x="240" y="-324.3" font-family="Times,serif" font-size="14.00">created_at :timestamp without time zone</text>
<text text-anchor="start" x="240" y="-309.3" font-family="Times,serif" font-size="14.00">updated_at :timestamp without time zone</text>
</g>
<!-- Worker&#45;&gt;Operation -->
<g id="edge2" class="edge"><title>Worker&#45;&gt;Operation</title>
<path fill="none" stroke="#273c3e" d="M354,-292.897C354,-287.005 354,-281.048 354,-275.213"/>
<ellipse fill="none" stroke="#273c3e" cx="354" cy="-297.12" rx="4" ry="4"/>
<polygon fill="#273c3e" stroke="#273c3e" points="354,-274.88 358.5,-264.88 354,-269.88 354,-264.88 354,-264.88 354,-264.88 354,-269.88 349.5,-264.88 354,-274.88 354,-274.88"/>
</g>
</g>
</svg>
